<?xml version="1.0" encoding="UTF-8"?><!DOCTYPE score-partwise PUBLIC "-//Recordare//DTD MusicXML 3.1 Partwise//EN" "http://www.musicxml.org/dtds/partwise.dtd"><score-partwise version="3.1"><identification><encoding><software>MuseScore 3.6.2</software><encoding-date>2024-06-29</encoding-date><supports element="accidental" type="yes"/><supports element="beam" type="yes"/><supports element="print" attribute="new-page" type="yes" value="yes"/><supports element="print" attribute="new-system" type="yes" value="yes"/><supports element="stem" type="yes"/></encoding></identification><defaults><scaling><millimeters>6.99911</millimeters><tenths>40</tenths></scaling><page-layout><page-height>1697.36</page-height><page-width>1200.15</page-width><page-margins type="even"><left-margin>85.7252</left-margin><right-margin>85.7252</right-margin><top-margin>85.7252</top-margin><bottom-margin>85.7252</bottom-margin></page-margins><page-margins type="odd"><left-margin>85.7252</left-margin><right-margin>85.7252</right-margin><top-margin>85.7252</top-margin><bottom-margin>85.7252</bottom-margin></page-margins></page-layout><word-font font-family="Edwin" font-size="10"/><lyric-font font-family="Edwin" font-size="10"/></defaults><part-list><score-part id="P1"><part-name>Piano</part-name><part-abbreviation>Pno.</part-abbreviation><score-instrument id="P1-I1"><instrument-name>Piano</instrument-name></score-instrument><midi-device id="P1-I1" port="1"></midi-device><midi-instrument id="P1-I1"><midi-channel>1</midi-channel><midi-program>1</midi-program><volume>78.7402</volume><pan>0</pan></midi-instrument></score-part></part-list><part id="P1"><measure number="1" width="192.95"><print><system-layout><system-margins><left-margin>50.00</left-margin><right-margin>-0.00</right-margin></system-margins><top-system-distance>70.00</top-system-distance></system-layout></print><attributes><divisions>2</divisions><key><fifths>-1</fifths></key><time><beats>4</beats><beat-type>4</beat-type></time><clef><sign>G</sign><line>2</line></clef></attributes><direction placement="above"><direction-type><metronome parentheses="no" default-x="-37.68" relative-y="20.00"><beat-unit>quarter</beat-unit><per-minute>80</per-minute></metronome></direction-type><sound tempo="80"/></direction><note default-x="98.84" default-y="-15.00" dynamics="100.00"><pitch><step>C</step><octave>5</octave></pitch><duration>2</duration><voice>1</voice><type>quarter</type><stem>down</stem><voice>1</voice>
<lyric>
<syllabic>single</syllabic>
<text>it</text>
</lyric>
</note><note default-x="120.28" default-y="-15.00" dynamics="100.00"><pitch><step>C</step><octave>5</octave></pitch><duration>2</duration><voice>1</voice><type>quarter</type><stem>down</stem><voice>1</voice>
<lyric>
<syllabic>single</syllabic>
<text>is</text>
</lyric>
</note><note default-x="141.72" default-y="-20.00" dynamics="100.00"><pitch><step>B</step><alter>-1</alter><octave>4</octave></pitch><duration>2</duration><voice>1</voice><type>quarter</type><stem>down</stem><voice>1</voice>
<lyric>
<syllabic>single</syllabic>
<text>a</text>
</lyric>
</note><note default-x="163.15" default-y="-25.00" dynamics="100.00"><pitch><step>A</step><octave>4</octave></pitch><duration>2</duration><voice>1</voice><type>quarter</type><stem>up</stem><voice>1</voice>
<lyric>
<syllabic>begin</syllabic>
<text>beau</text>
</lyric>
</note></measure><measure number="2" width="89.11"><note default-x="13.00" default-y="-30.00" dynamics="100.00"><pitch><step>G</step><octave>4</octave></pitch><duration>2</duration><voice>1</voice><type>quarter</type><stem>up</stem><voice>1</voice>
<lyric>
<syllabic>middle</syllabic>
<text>ti</text>
</lyric>
</note><note default-x="30.81" default-y="-25.00" dynamics="100.00"><pitch><step>A</step><octave>4</octave></pitch><duration>4</duration><voice>1</voice><type>half</type><stem>up</stem><voice>1</voice>
<lyric>
<syllabic>end</syllabic>
<text>ful</text>
</lyric>
</note><note default-x="59.32" default-y="-20.00" dynamics="100.00"><pitch><step>B</step><alter>-1</alter><octave>4</octave></pitch><duration>2</duration><voice>1</voice><type>quarter</type><stem>down</stem><voice>1</voice>
<lyric>
<syllabic>single</syllabic>
<text>dayihadtofeelsowell</text>
</lyric>
</note></measure><measure number="3" width="125.10"><note default-x="13.00" default-y="-20.00" dynamics="100.00"><pitch><step>B</step><alter>-1</alter><octave>4</octave></pitch><duration>2</duration><voice>1</voice><type>quarter</type><stem>down</stem><voice>1</voice>
<lyric>
<syllabic>single</syllabic>
<text>i</text>
</lyric>
</note><note default-x="38.33" default-y="-25.00" dynamics="100.00"><pitch><step>A</step><octave>4</octave></pitch><duration>2</duration><voice>1</voice><type>quarter</type><stem>up</stem><voice>1</voice>
<lyric>
<syllabic>single</syllabic>
<text>hear</text>
</lyric>
</note><note default-x="63.65" default-y="-20.00" dynamics="100.00"><pitch><step>B</step><alter>-1</alter><octave>4</octave></pitch><duration>1</duration><voice>1</voice><type>eighth</type><stem>up</stem><beam number="1">begin</beam><voice>1</voice>
<lyric>
<syllabic>single</syllabic>
<text>you</text>
</lyric>
</note><note default-x="79.48" default-y="-25.00" dynamics="100.00"><pitch><step>A</step><octave>4</octave></pitch><duration>1</duration><voice>1</voice><type>eighth</type><stem>up</stem><beam number="1">end</beam><voice>1</voice>
<lyric>
<syllabic>single</syllabic>
<text>still</text>
</lyric>
</note><note default-x="95.31" default-y="-30.00" dynamics="100.00"><pitch><step>G</step><octave>4</octave></pitch><duration>2</duration><voice>1</voice><type>quarter</type><stem>up</stem><voice>1</voice>
<lyric>
<syllabic>single</syllabic>
<text>my</text>
</lyric>
</note></measure><measure number="4" width="107.11"><note default-x="13.00" default-y="-35.00" dynamics="100.00"><pitch><step>F</step><octave>4</octave></pitch><duration>2</duration><voice>1</voice><type>quarter</type><stem>up</stem><voice>1</voice>
<lyric>
<syllabic>single</syllabic>
<text>heart</text>
</lyric>
</note><note default-x="34.44" default-y="-35.00" dynamics="100.00"><pitch><step>F</step><octave>4</octave></pitch><duration>2</duration><voice>1</voice><type>quarter</type><stem>up</stem><voice>1</voice>
<lyric>
<syllabic>single</syllabic>
<text>in</text>
</lyric>
</note><note default-x="55.87" default-y="-20.00" dynamics="100.00"><pitch><step>B</step><alter>-1</alter><octave>4</octave></pitch><duration>2</duration><voice>1</voice><type>quarter</type><stem>down</stem><voice>1</voice>
<lyric>
<syllabic>single</syllabic>
<text>the</text>
</lyric>
</note><note default-x="77.31" default-y="-25.00" dynamics="100.00"><pitch><step>A</step><octave>4</octave></pitch><duration>2</duration><voice>1</voice><type>quarter</type><stem>up</stem><voice>1</voice>
<lyric>
<syllabic>single</syllabic>
<text>sky</text>
</lyric>
</note></measure><measure number="5" width="107.11"><note default-x="13.00" default-y="-20.00" dynamics="100.00"><pitch><step>B</step><alter>-1</alter><octave>4</octave></pitch><duration>2</duration><voice>1</voice><type>quarter</type><stem>down</stem><voice>1</voice>
<lyric>
<syllabic>single</syllabic>
<text>a</text>
</lyric>
</note><note default-x="34.44" default-y="-25.00" dynamics="100.00"><pitch><step>A</step><octave>4</octave></pitch><duration>2</duration><voice>1</voice><type>quarter</type><stem>up</stem><voice>1</voice>
<lyric>
<syllabic>single</syllabic>
<text>a</text>
</lyric>
</note><note default-x="55.87" default-y="-30.00" dynamics="100.00"><pitch><step>G</step><octave>4</octave></pitch><duration>2</duration><voice>1</voice><type>quarter</type><stem>up</stem><voice>1</voice>
<lyric>
<syllabic>single</syllabic>
<text>a</text>
</lyric>
</note><note default-x="77.31" default-y="-25.00" dynamics="100.00"><pitch><step>A</step><octave>4</octave></pitch><duration>2</duration><voice>1</voice><type>quarter</type><stem>up</stem><voice>1</voice>
<lyric>
<syllabic>single</syllabic>
<text>a</text>
</lyric>
</note></measure><measure number="6" width="107.11"><note default-x="13.00" default-y="-20.00" dynamics="100.00"><pitch><step>B</step><alter>-1</alter><octave>4</octave></pitch><duration>1</duration><voice>1</voice><type>eighth</type><stem>up</stem><beam number="1">begin</beam><voice>1</voice>
<lyric>
<syllabic>single</syllabic>
<text>a</text>
</lyric>
</note><note default-x="28.31" default-y="-25.00" dynamics="100.00"><pitch><step>A</step><octave>4</octave></pitch><duration>1</duration><voice>1</voice><type>eighth</type><stem>up</stem><beam number="1">end</beam><voice>1</voice>
<lyric>
<syllabic>single</syllabic>
<text>a</text>
</lyric>
</note><note default-x="43.62" default-y="-30.00" dynamics="100.00"><pitch><step>G</step><octave>4</octave></pitch><duration>4</duration><voice>1</voice><type>half</type><stem>up</stem><voice>1</voice>
<lyric>
<syllabic>single</syllabic>
<text>a</text>
</lyric>
</note><note default-x="77.31" default-y="-35.00" dynamics="100.00"><pitch><step>F</step><octave>4</octave></pitch><duration>2</duration><tie type="start"/><voice>1</voice><type>quarter</type><stem>up</stem><notations><tied type="start"/></notations><voice>1</voice>
<lyric>
<syllabic>single</syllabic>
<text>a</text>
</lyric>
</note></measure><measure number="7" width="107.11"><note default-x="13.00" default-y="-35.00" dynamics="100.00"><pitch><step>F</step><octave>4</octave></pitch><duration>2</duration><tie type="stop"/><voice>1</voice><type>quarter</type><stem>up</stem><notations><tied type="stop"/></notations></note><note default-x="34.44" default-y="-20.00" dynamics="100.00"><pitch><step>B</step><alter>-1</alter><octave>4</octave></pitch><duration>2</duration><voice>1</voice><type>quarter</type><stem>down</stem><voice>1</voice>
<lyric>
<syllabic>single</syllabic>
<text>so</text>
</lyric>
</note><note default-x="55.87" default-y="-25.00" dynamics="100.00"><pitch><step>A</step><octave>4</octave></pitch><duration>2</duration><voice>1</voice><type>quarter</type><stem>up</stem><voice>1</voice>
<lyric>
<syllabic>single</syllabic>
<text>i'm</text>
</lyric>
</note><note default-x="77.31" default-y="-20.00" dynamics="100.00"><pitch><step>B</step><alter>-1</alter><octave>4</octave></pitch><duration>2</duration><voice>1</voice><type>quarter</type><stem>down</stem><voice>1</voice>
<lyric>
<syllabic>single</syllabic>
<text>a</text>
</lyric>
</note></measure><measure number="8" width="143.10"><note default-x="13.00" default-y="-15.00" dynamics="100.00"><pitch><step>C</step><octave>5</octave></pitch><duration>2</duration><voice>1</voice><type>quarter</type><stem>down</stem><voice>1</voice>
<lyric>
<syllabic>begin</syllabic>
<text>coun</text>
</lyric>
</note><note default-x="41.51" default-y="-20.00" dynamics="100.00"><pitch><step>B</step><alter>-1</alter><octave>4</octave></pitch><duration>1</duration><voice>1</voice><type>eighth</type><stem>up</stem><beam number="1">begin</beam><voice>1</voice>
<lyric>
<syllabic>end</syllabic>
<text>try</text>
</lyric>
</note><note default-x="59.33" default-y="-25.00" dynamics="100.00"><pitch><step>A</step><octave>4</octave></pitch><duration>1</duration><voice>1</voice><type>eighth</type><stem>up</stem><beam number="1">end</beam><voice>1</voice>
<lyric>
<syllabic>single</syllabic>
<text>of</text>
</lyric>
</note><note default-x="77.15" default-y="-30.00" dynamics="100.00"><pitch><step>G</step><octave>4</octave></pitch><duration>1</duration><voice>1</voice><type>eighth</type><stem>up</stem><beam number="1">begin</beam><voice>1</voice>
<lyric>
<syllabic>single</syllabic>
<text>the</text>
</lyric>
</note><note default-x="94.97" default-y="-25.00" dynamics="100.00"><pitch><step>A</step><octave>4</octave></pitch><duration>1</duration><voice>1</voice><type>eighth</type><stem>up</stem><beam number="1">end</beam><voice>1</voice>
<lyric>
<syllabic>single</syllabic>
<text>e</text>
</lyric>
</note><note default-x="112.79" default-y="-20.00" dynamics="100.00"><pitch><step>B</step><alter>-1</alter><octave>4</octave></pitch><duration>2</duration><voice>1</voice><type>quarter</type><stem>down</stem><voice>1</voice>
<lyric>
<syllabic>single</syllabic>
<text>same</text>
</lyric>
</note></measure><measure number="9" width="162.98"><print new-system="yes"><system-layout><system-margins><left-margin>0.00</left-margin><right-margin>0.00</right-margin></system-margins><system-distance>150.00</system-distance></system-layout></print><note default-x="76.71" default-y="-25.00" dynamics="100.00"><pitch><step>A</step><octave>4</octave></pitch><duration>2</duration><voice>1</voice><type>quarter</type><stem>up</stem><voice>1</voice>
<lyric>
<syllabic>single</syllabic>
<text>e</text>
</lyric>
</note><note default-x="98.43" default-y="-30.00" dynamics="100.00"><pitch><step>G</step><octave>4</octave></pitch><duration>4</duration><voice>1</voice><type>half</type><stem>up</stem><voice>1</voice>
<lyric>
<syllabic>single</syllabic>
<text>i</text>
</lyric>
</note><note default-x="133.19" default-y="-35.00" dynamics="100.00"><pitch><step>F</step><octave>4</octave></pitch><duration>2</duration><tie type="start"/><voice>1</voice><type>quarter</type><stem>up</stem><notations><tied type="start"/></notations><voice>1</voice>
<lyric>
<syllabic>single</syllabic>
<text>don't</text>
</lyric>
</note></measure><measure number="10" width="117.27"><note default-x="13.00" default-y="-35.00" dynamics="100.00"><pitch><step>F</step><octave>4</octave></pitch><duration>2</duration><tie type="stop"/><voice>1</voice><type>quarter</type><stem>up</stem><notations><tied type="stop"/></notations></note><note default-x="37.82" default-y="-20.00" dynamics="100.00"><pitch><step>B</step><alter>-1</alter><octave>4</octave></pitch><duration>2</duration><voice>1</voice><type>quarter</type><stem>down</stem><voice>1</voice>
<lyric>
<syllabic>single</syllabic>
<text>wanna</text>
</lyric>
</note><note default-x="62.65" default-y="-20.00" dynamics="100.00"><pitch><step>B</step><alter>-1</alter><octave>4</octave></pitch><duration>2</duration><voice>1</voice><type>quarter</type><stem>down</stem><voice>1</voice>
<lyric>
<syllabic>single</syllabic>
<text>stay</text>
</lyric>
</note><note default-x="87.47" default-y="-20.00" dynamics="100.00"><pitch><step>B</step><alter>-1</alter><octave>4</octave></pitch><duration>2</duration><voice>1</voice><type>quarter</type><stem>down</stem><voice>1</voice>
<lyric>
<syllabic>single</syllabic>
<text>for</text>
</lyric>
</note></measure><measure number="11" width="135.26"><note default-x="13.00" default-y="-25.00" dynamics="100.00"><pitch><step>A</step><octave>4</octave></pitch><duration>2</duration><voice>1</voice><type>quarter</type><stem>up</stem><voice>1</voice>
<lyric>
<syllabic>single</syllabic>
<text>you</text>
</lyric>
</note><note default-x="38.51" default-y="-20.00" dynamics="100.00"><pitch><step>B</step><alter>-1</alter><octave>4</octave></pitch><duration>2</duration><voice>1</voice><type>quarter</type><stem>down</stem><voice>1</voice>
<lyric>
<syllabic>single</syllabic>
<text>u</text>
</lyric>
</note><note default-x="64.02" default-y="-25.00" dynamics="100.00"><pitch><step>A</step><octave>4</octave></pitch><duration>2</duration><voice>1</voice><type>quarter</type><stem>up</stem><voice>1</voice>
<lyric>
<syllabic>single</syllabic>
<text>a</text>
</lyric>
</note><note default-x="89.52" default-y="-20.00" dynamics="100.00"><pitch><step>B</step><alter>-1</alter><octave>4</octave></pitch><duration>1</duration><voice>1</voice><type>eighth</type><stem>up</stem><beam number="1">begin</beam><voice>1</voice>
<lyric>
<syllabic>single</syllabic>
<text>a</text>
</lyric>
</note><note default-x="105.47" default-y="-25.00" dynamics="100.00"><pitch><step>A</step><octave>4</octave></pitch><duration>1</duration><voice>1</voice><type>eighth</type><stem>up</stem><beam number="1">end</beam><voice>1</voice>
<lyric>
<syllabic>single</syllabic>
<text>a</text>
</lyric>
</note></measure><measure number="12" width="117.27"><note default-x="13.00" default-y="-30.00" dynamics="100.00"><pitch><step>G</step><octave>4</octave></pitch><duration>2</duration><voice>1</voice><type>quarter</type><stem>up</stem><voice>1</voice>
<lyric>
<syllabic>single</syllabic>
<text>a</text>
</lyric>
</note><note default-x="37.82" default-y="-35.00" dynamics="100.00"><pitch><step>F</step><octave>4</octave></pitch><duration>2</duration><voice>1</voice><type>quarter</type><stem>up</stem><voice>1</voice>
<lyric>
<syllabic>single</syllabic>
<text>a</text>
</lyric>
</note><note default-x="62.65" default-y="-35.00" dynamics="100.00"><pitch><step>F</step><octave>4</octave></pitch><duration>2</duration><voice>1</voice><type>quarter</type><stem>up</stem><voice>1</voice>
<lyric>
<syllabic>single</syllabic>
<text>a</text>
</lyric>
</note><note default-x="87.47" default-y="-35.00" dynamics="100.00"><pitch><step>F</step><octave>4</octave></pitch><duration>2</duration><voice>1</voice><type>quarter</type><stem>up</stem><voice>1</voice>
<lyric>
<syllabic>single</syllabic>
<text>a</text>
</lyric>
</note></measure><measure number="13" width="117.27"><note default-x="13.00" default-y="-35.00" dynamics="100.00"><pitch><step>F</step><octave>4</octave></pitch><duration>2</duration><voice>1</voice><type>quarter</type><stem>up</stem><voice>1</voice>
<lyric>
<syllabic>single</syllabic>
<text>a</text>
</lyric>
</note><note default-x="37.82" default-y="-35.00" dynamics="100.00"><pitch><step>F</step><octave>4</octave></pitch><duration>2</duration><voice>1</voice><type>quarter</type><stem>up</stem><voice>1</voice>
<lyric>
<syllabic>single</syllabic>
<text>a</text>
</lyric>
</note><note default-x="62.65" default-y="-20.00" dynamics="100.00"><pitch><step>B</step><alter>-1</alter><octave>4</octave></pitch><duration>2</duration><voice>1</voice><type>quarter</type><stem>down</stem><voice>1</voice>
<lyric>
<syllabic>single</syllabic>
<text>and</text>
</lyric>
</note><note default-x="87.47" default-y="-20.00" dynamics="100.00"><pitch><step>B</step><alter>-1</alter><octave>4</octave></pitch><duration>2</duration><voice>1</voice><type>quarter</type><stem>down</stem><voice>1</voice>
<lyric>
<syllabic>single</syllabic>
<text>you</text>
</lyric>
</note></measure><measure number="14" width="117.27"><note default-x="13.00" default-y="-20.00" dynamics="100.00"><pitch><step>B</step><alter>-1</alter><octave>4</octave></pitch><duration>2</duration><voice>1</voice><type>quarter</type><stem>down</stem><voice>1</voice>
<lyric>
<syllabic>single</syllabic>
<text>want</text>
</lyric>
</note><note default-x="37.82" default-y="-15.00" dynamics="100.00"><pitch><step>C</step><octave>5</octave></pitch><duration>2</duration><voice>1</voice><type>quarter</type><stem>down</stem><voice>1</voice>
<lyric>
<syllabic>single</syllabic>
<text>to</text>
</lyric>
</note><note default-x="62.65" default-y="-20.00" dynamics="100.00"><pitch><step>B</step><alter>-1</alter><octave>4</octave></pitch><duration>2</duration><voice>1</voice><type>quarter</type><stem>down</stem><voice>1</voice>
<lyric>
<syllabic>single</syllabic>
<text>be</text>
</lyric>
</note><note default-x="87.47" default-y="-25.00" dynamics="100.00"><pitch><step>A</step><octave>4</octave></pitch><duration>2</duration><voice>1</voice><type>quarter</type><stem>up</stem><voice>1</voice>
<lyric>
<syllabic>single</syllabic>
<text>my</text>
</lyric>
</note></measure><measure number="15" width="153.26"><note default-x="13.00" default-y="-30.00" dynamics="100.00"><pitch><step>G</step><octave>4</octave></pitch><duration>2</duration><voice>1</voice><type>quarter</type><stem>up</stem><voice>1</voice>
<lyric>
<syllabic>single</syllabic>
<text>life</text>
</lyric>
</note><note default-x="43.77" default-y="-25.00" dynamics="100.00"><pitch><step>A</step><octave>4</octave></pitch><duration>1</duration><voice>1</voice><type>eighth</type><stem>up</stem><beam number="1">begin</beam><voice>1</voice>
<lyric>
<syllabic>single</syllabic>
<text>e</text>
</lyric>
</note><note default-x="63.00" default-y="-20.00" dynamics="100.00"><pitch><step>B</step><alter>-1</alter><octave>4</octave></pitch><duration>1</duration><voice>1</voice><type>eighth</type><stem>up</stem><beam number="1">end</beam><voice>1</voice>
<lyric>
<syllabic>single</syllabic>
<text>you</text>
</lyric>
</note><note default-x="82.23" default-y="-25.00" dynamics="100.00"><pitch><step>A</step><octave>4</octave></pitch><duration>1</duration><voice>1</voice><type>eighth</type><stem>up</stem><beam number="1">begin</beam><voice>1</voice>
<lyric>
<syllabic>begin</syllabic>
<text>can</text>
</lyric>
</note><note default-x="101.46" default-y="-30.00" dynamics="100.00"><pitch><step>G</step><octave>4</octave></pitch><duration>1</duration><voice>1</voice><type>eighth</type><stem>up</stem><beam number="1">end</beam><voice>1</voice>
<lyric>
<syllabic>end</syllabic>
<text>'t</text>
</lyric>
</note><note default-x="120.69" default-y="-35.00" dynamics="100.00"><pitch><step>F</step><octave>4</octave></pitch><duration>2</duration><tie type="start"/><voice>1</voice><type>quarter</type><stem>up</stem><notations><tied type="start"/></notations><voice>1</voice>
<lyric>
<syllabic>single</syllabic>
<text>let</text>
</lyric>
</note></measure><measure number="16" width="108.12"><note default-x="13.00" default-y="-35.00" dynamics="100.00"><pitch><step>F</step><octave>4</octave></pitch><duration>2</duration><tie type="stop"/><voice>1</voice><type>quarter</type><stem>up</stem><notations><tied type="stop"/></notations></note><note default-x="34.72" default-y="-40.00" dynamics="100.00"><pitch><step>E</step><octave>4</octave></pitch><duration>4</duration><voice>1</voice><type>half</type><stem>up</stem><voice>1</voice>
<lyric>
<syllabic>single</syllabic>
<text>me</text>
</lyric>
</note><note default-x="69.47" default-y="-40.00" dynamics="100.00"><pitch><step>E</step><octave>4</octave></pitch><duration>2</duration><voice>1</voice><type>quarter</type><stem>up</stem><notations><articulations><staccato/></articulations></notations><voice>1</voice>
<lyric>
<syllabic>single</syllabic>
<text>be</text>
</lyric>
</note><barline location="right"><bar-style>light-heavy</bar-style></barline></measure></part></score-partwise>